<svg xmlns="http://www.w3.org/2000/svg" viewBox="0 0 16 16" width="16" height="16"><style>tspan { white-space:pre }.shp0 { fill: #ffffff } </style><path id="search" class="shp0" d="M10.59 1C7.61 1 5.18 3.4 5.18 6.34C5.18 7.58 5.61 8.72 6.33 9.63L1.2 14.7C0.9 15 0.9 15.48 1.21 15.78C1.36 15.93 1.56 16 1.76 16C1.96 16 2.16 15.92 2.32 15.77L7.45 10.69C8.34 11.31 9.42 11.68 10.59 11.68C13.57 11.68 16 9.29 16 6.34C16 3.4 13.57 1 10.59 1ZM10.59 10.33C8.38 10.33 6.57 8.54 6.57 6.34C6.57 4.14 8.38 2.36 10.59 2.36C12.81 2.36 14.61 4.14 14.61 6.34C14.61 8.54 12.81 10.33 10.59 10.33ZM13.3 6.4C13.26 6.7 13 6.92 12.7 6.92C12.67 6.92 12.65 6.92 12.62 6.91C12.29 6.87 12.05 6.57 12.1 6.25C12.22 5.36 11.2 4.9 11.16 4.88C10.86 4.74 10.72 4.39 10.86 4.09C11 3.8 11.35 3.66 11.66 3.79C11.73 3.83 13.54 4.63 13.3 6.4ZM12.02 7.71C12.15 7.83 12.22 8.01 12.22 8.18C12.22 8.36 12.15 8.54 12.02 8.66C11.89 8.79 11.71 8.86 11.53 8.86C11.35 8.86 11.17 8.79 11.04 8.66C10.91 8.54 10.84 8.36 10.84 8.18C10.84 8.01 10.91 7.83 11.04 7.71C11.17 7.58 11.35 7.51 11.53 7.51C11.71 7.51 11.89 7.58 12.02 7.71Z" /></svg>